<svg width="81" height="113" viewBox="0 0 81 113" fill="none" xmlns="http://www.w3.org/2000/svg">
<g clip-path="url(#clip0_64_5)">
<path fill-rule="evenodd" clip-rule="evenodd" d="M0 0L-4.93953e-06 113.003L80.9957 113.003L80.9957 3.54043e-06L0 0Z" fill="white"/>
<path fill-rule="evenodd" clip-rule="evenodd" d="M79.9901 10.9956L79.9901 11.9949L5.2737 11.9949L5.2737 10.9956L79.9901 10.9956ZM79.9901 12.9946L79.9901 13.9939L5.2737 13.9939L5.2737 12.9946L79.9901 12.9946ZM79.9901 15.9935L79.9901 17.9925L10.3034 17.9925L10.3034 15.9935L79.9901 15.9935ZM79.9901 19.9915L79.9901 20.9913L10.3034 20.9913L10.3034 19.9915L79.9901 19.9915ZM79.9901 22.9904L79.9901 24.9894L10.3034 24.9894L10.3034 22.9904L79.9901 22.9904ZM79.9901 26.9884L79.9901 27.9882L10.3034 27.9882L10.3034 26.9884L79.9901 26.9884ZM79.9901 28.9875L79.9901 29.9872L10.3034 29.9872L10.3034 28.9875L79.9901 28.9875ZM79.9901 31.9863L79.9901 34.9851L10.3034 34.9851L10.3034 31.9863L79.9901 31.9863ZM79.9901 36.9842L79.9901 38.9833L10.3034 38.9832L10.3034 36.9842L79.9901 36.9842ZM79.9901 39.983L79.9901 41.9821L10.3034 41.9821L10.3034 39.983L79.9901 39.983ZM79.9901 43.9811L79.9901 46.9799L10.3034 46.9799L10.3034 43.9811L79.9901 43.9811ZM79.9901 47.9797L79.9901 48.979L10.3034 48.979L10.3034 47.9797L79.9901 47.9797ZM79.9901 50.9785L79.9901 52.9776L10.3034 52.9776L10.3034 50.9785L79.9901 50.9785ZM79.9901 54.9766L79.9901 55.9764L10.3034 55.9764L10.3034 54.9766L79.9901 54.9766ZM79.9901 56.9757L79.9901 57.9754L5.2737 57.9754L5.2737 56.9757L79.9901 56.9757ZM79.9901 58.9747L79.9901 59.9745L5.2737 59.9745L5.2737 58.9747L79.9901 58.9747ZM79.9901 60.9743L79.9901 61.9736L10.3034 61.9736L10.3034 60.9743L79.9901 60.9743ZM79.9901 62.9733L79.9901 65.9721L10.3034 65.9721L10.3034 62.9733L79.9901 62.9733ZM79.9901 67.9712L79.9901 68.9705L10.3034 68.9705L10.3034 67.9712L79.9901 67.9712ZM79.9901 69.9702L79.9901 70.97L10.3034 70.97L10.3034 69.9702L79.9901 69.9702ZM79.9901 74.9681L79.9901 75.9679L10.3034 75.9679L10.3034 74.9681L79.9901 74.9681ZM79.9901 76.9672L79.9901 79.966L10.3034 79.966L10.3034 76.9671L79.9901 76.9672ZM79.9901 81.965L79.9901 84.9638L10.3034 84.9638L10.3034 81.965L79.9901 81.965ZM79.9901 85.9636L79.9901 86.963L10.3034 86.963L10.3034 85.9636L79.9901 85.9636ZM79.9901 88.9619L79.9901 90.9614L10.3034 90.9614L10.3034 88.9619L79.9901 88.9619ZM79.9901 92.9606L79.9901 94.9596L10.3034 94.9596L10.3034 92.9606L79.9901 92.9606ZM79.9901 95.9594L79.9901 96.9587L10.3034 96.9587L10.3034 95.9594L79.9901 95.9594ZM79.9901 97.9584L79.9901 98.9578L10.3034 98.9577L10.3034 97.9584L79.9901 97.9584ZM79.9901 102.956L79.9901 103.956L5.2737 103.956L5.2737 102.956L79.9901 102.956ZM79.9901 104.955L79.9901 105.955L5.2737 105.955L5.2737 104.955L79.9901 104.955ZM1.57741 0.369629L2.50033 0.758835C2.1861 1.5101 2.02899 2.11228 2.02899 2.56497C2.02899 3.08364 2.15082 3.51751 2.3953 3.86664C2.6398 4.21617 2.99896 4.40409 3.47408 4.43082L3.56439 4.43082C4.05295 4.43082 4.4159 4.23245 4.65367 3.83698C4.89102 3.4411 5.0099 2.96044 5.0099 2.395L5.86308 2.03587L7.7606 3.842L7.7606 0.559221L8.76376 0.559221L8.76376 5.17874L7.71986 5.17874L5.88283 3.42272C5.74924 3.99484 5.48208 4.47216 5.08047 4.85469C4.67887 5.23721 4.17687 5.42805 3.57448 5.42805L3.42408 5.42805C2.6881 5.40174 2.10419 5.11569 1.67235 4.5703C1.24092 4.02449 1.025 3.35632 1.025 2.56497C1.025 1.97949 1.20941 1.24743 1.57741 0.369629ZM6.88683 15.154L8.88432 17.4692L8.88432 18.4668L1.05524 18.4668L1.05524 17.4692L7.5598 17.4692L6.12438 15.8025L6.88683 15.154ZM6.88683 22.1509L8.88432 24.4661L8.88432 25.4639L1.05524 25.4639L1.05524 24.4661L7.5598 24.4661L6.12438 22.7995L6.88683 22.1509ZM4.59822 29.0385L5.01998 29.0385C5.92988 29.0385 6.62596 29.0982 7.1078 29.2181C8.31217 29.5108 8.91456 30.2825 8.91456 31.5332C8.91456 31.8523 8.87298 32.1396 8.78897 32.396C8.70536 32.652 8.59489 32.8667 8.45793 33.0396C8.32057 33.2124 8.14161 33.3607 7.92065 33.4834C7.70011 33.6066 7.47747 33.7031 7.25314 33.7728C7.02924 33.843 6.7566 33.8977 6.43523 33.9374C6.1143 33.9774 5.81982 34.0026 5.55222 34.0125C5.28421 34.0226 4.96621 34.0276 4.59822 34.0276C4.00297 34.0276 3.47071 33.9758 3.00275 33.8727C2.53393 33.7699 2.11595 33.5765 1.74796 33.2939C1.37996 33.0111 1.15228 32.647 1.0649 32.2014C1.03844 32.0553 1.02499 31.8323 1.02499 31.5332C1.02499 31.0539 1.11699 30.6445 1.30141 30.3055C1.48499 29.9664 1.74796 29.7084 2.08907 29.5321C2.4306 29.3559 2.8032 29.2297 3.20858 29.1529C3.61313 29.0769 4.07648 29.0385 4.59822 29.0385ZM4.59822 30.0366C3.04601 30.0366 2.19619 30.3752 2.04874 31.0539C2.0353 31.1207 2.02899 31.2171 2.02899 31.3433L2.02899 31.5332C2.02899 31.8919 2.09074 32.1646 2.21467 32.3513C2.33817 32.5375 2.54737 32.6838 2.84185 32.7903C3.26992 32.9502 3.85594 33.0295 4.59822 33.0295L5.09055 33.0295C5.37789 33.0295 5.62195 33.0245 5.82276 33.0149C6.02356 33.0049 6.25629 32.9815 6.52093 32.9452C6.78517 32.9084 7.00235 32.8549 7.17332 32.7852C7.34388 32.7151 7.49763 32.614 7.635 32.4808C7.77194 32.348 7.85722 32.188 7.89082 32.0018C7.90427 31.9421 7.91057 31.8489 7.91057 31.7228L7.91057 31.5332L7.91057 31.3433L7.89082 31.0539C7.8505 30.8279 7.74338 30.6416 7.56988 30.4955C7.39554 30.3489 7.16114 30.2441 6.86667 30.1807C6.57261 30.1176 6.30166 30.0779 6.05381 30.0611C5.80638 30.0445 5.50182 30.0366 5.14055 30.0366L4.59822 30.0366ZM8.02147 36.0058C8.32939 36.4446 8.55498 36.8439 8.69864 37.2026C8.84232 37.5618 8.91456 38.0044 8.91456 38.5302C8.91456 39.1749 8.71713 39.7091 8.32225 40.1317C7.9278 40.5539 7.41193 40.7651 6.77676 40.7651C6.52219 40.7651 6.27813 40.7184 6.04372 40.6253C5.80931 40.5322 5.61734 40.4341 5.46694 40.3313C5.31614 40.2277 5.14685 40.0649 4.95991 39.8419C4.77255 39.6189 4.64191 39.4527 4.56839 39.3433C4.49446 39.2334 4.37767 39.0522 4.2172 38.7991C4.05674 38.5465 3.93071 38.3586 3.8408 38.2353C3.75007 38.1126 3.61985 37.9647 3.44929 37.7914C3.27832 37.6186 3.08928 37.4957 2.88218 37.4227C2.67466 37.3487 2.4369 37.3125 2.16972 37.3125L2.16972 40.8249L1.16572 40.8249L1.16572 36.3148C1.44003 36.2748 1.69419 36.2551 1.92859 36.2551C2.30961 36.2551 2.66122 36.3068 2.98258 36.4096C3.30353 36.5127 3.59002 36.6639 3.8408 36.8635C4.0916 37.0632 4.30878 37.2707 4.4932 37.4874C4.67677 37.7033 4.86623 37.961 5.06031 38.2609C5.08047 38.2934 5.13215 38.3786 5.21574 38.5152C5.29933 38.6513 5.36277 38.7494 5.40645 38.8092C5.44973 38.8693 5.51484 38.9608 5.60222 39.0839C5.68917 39.2067 5.7694 39.2986 5.84292 39.3583C5.91643 39.418 6.00381 39.4861 6.10421 39.5629C6.20461 39.6393 6.31173 39.6928 6.42516 39.7225C6.539 39.7525 6.6562 39.7671 6.77676 39.7671C7.11745 39.7671 7.39219 39.6494 7.59971 39.413C7.80723 39.177 7.91057 38.8822 7.91057 38.5302C7.91057 38.2437 7.87403 37.9761 7.80051 37.7268C7.727 37.4775 7.6497 37.2861 7.56988 37.1529C7.48922 37.0201 7.3653 36.8301 7.19811 36.5846L8.02147 36.0058ZM2.80195 43.0323L3.84585 43.0323L9.04521 45.4574L8.62345 46.3552L3.80552 44.1098L3.80552 45.9956L5.47199 45.9956L5.47199 46.9937L3.80552 46.9937L3.80552 48.0214L2.80194 48.0214L2.80194 46.9937L1.05524 46.9937L1.05524 45.9956L2.80195 45.9956L2.80195 43.0323ZM6.88683 50.1391L8.88432 52.4543L8.88432 53.4519L1.05524 53.4519L1.05524 52.4543L7.5598 52.4543L6.12437 50.7876L6.88683 50.1391ZM2.80194 62.0563L3.84585 62.0563L9.04521 64.4812L8.62345 65.3791L3.80552 63.1337L3.80552 65.0199L5.47199 65.0199L5.47199 66.0176L3.80552 66.0176L3.80552 67.0454L2.80194 67.0454L2.80194 66.0176L1.05524 66.0176L1.05524 65.0199L2.80194 65.0199L2.80194 62.0563ZM3.45433 69.0532C4.37095 69.0532 5.22078 69.2863 6.00381 69.7518C6.93388 70.3111 7.96434 71.1521 9.0952 72.2762L8.4029 72.9845C8.33569 72.9248 8.18698 72.7886 7.95594 72.5757C7.72489 72.3631 7.55769 72.2082 7.45394 72.1117C7.3506 72.0153 7.20315 71.8858 7.01243 71.7225C6.82171 71.5596 6.64444 71.4148 6.48018 71.2886C6.31636 71.162 6.15084 71.0426 5.98365 70.9295C6.02355 71.1287 6.04372 71.335 6.04372 71.5484C6.04372 72.3197 5.80931 72.9286 5.34135 73.3737C4.87253 73.8197 4.24366 74.0427 3.45433 74.0427C2.73809 74.0427 2.1546 73.8097 1.703 73.3441C1.251 72.8784 1.02499 72.28 1.02499 71.5484C1.02499 70.8029 1.251 70.2007 1.703 69.7418C2.1546 69.2833 2.73809 69.0532 3.45433 69.0532ZM3.45433 70.0513C3.01282 70.0513 2.66457 70.1874 2.41043 70.4601C2.15586 70.7328 2.02899 71.0956 2.02899 71.5484C2.02899 72.0002 2.15586 72.3631 2.41043 72.6358C2.66457 72.9085 3.01282 73.0447 3.45433 73.0447C3.96305 73.0447 4.35457 72.9185 4.62889 72.6655C4.9032 72.4128 5.03972 72.0403 5.03972 71.5484C5.03972 71.0689 4.89984 70.6998 4.61838 70.4404C4.33734 70.1812 3.94961 70.0513 3.45433 70.0513ZM2.80194 76.0505L3.84585 76.0505L9.04521 78.4752L8.62345 79.3734L3.80552 77.1279L3.80552 79.0139L5.47199 79.0139L5.47199 80.012L3.80552 80.012L3.80552 81.0396L2.80194 81.0396L2.80194 80.012L1.05524 80.012L1.05524 79.0139L2.80194 79.0139L2.80194 76.0505ZM6.3151 83.0474C7.02419 83.0474 7.63499 83.2906 8.14665 83.7758C8.65873 84.2615 8.91456 84.8503 8.91456 85.5422C8.91456 86.2538 8.67512 86.8476 8.19707 87.3228C7.71858 87.7986 7.09099 88.0366 6.3151 88.0366C5.83998 88.0366 5.40982 87.9669 5.02502 87.8269C4.64022 87.6871 4.22014 87.4874 3.76519 87.2281C2.80824 86.6564 1.83449 85.8346 0.844357 84.7638L1.59715 84.0952C2.3869 84.973 3.16657 85.6583 3.93575 86.1507C3.90928 85.9711 3.89584 85.7681 3.89584 85.5422C3.89584 84.7969 4.12646 84.1947 4.58814 83.7357C5.05022 83.2772 5.62574 83.0474 6.3151 83.0474ZM6.3151 84.0455C5.89333 84.0455 5.55222 84.18 5.29135 84.4494C5.03006 84.7187 4.89983 85.0833 4.89983 85.5422C4.89983 86.0676 5.00821 86.4485 5.22582 86.6844C5.44342 86.9208 5.80637 87.0385 6.3151 87.0385C6.80323 87.0385 7.19139 86.9057 7.47914 86.6397C7.7669 86.3737 7.91057 86.0075 7.91057 85.5422C7.91057 85.1229 7.75346 84.7684 7.43924 84.4795C7.12459 84.1896 6.74946 84.0455 6.3151 84.0455ZM6.88683 90.1543L8.88432 92.4694L8.88432 93.4671L1.05524 93.4671L1.05524 92.4694L7.5598 92.4694L6.12437 90.8028L6.88683 90.1543ZM3.45433 97.0414C4.37095 97.0414 5.22078 97.2743 6.00381 97.74C6.93388 98.2987 7.96434 99.1402 9.0952 100.264L8.4029 100.973C8.33569 100.913 8.18698 100.777 7.95594 100.564C7.72489 100.351 7.55769 100.196 7.45394 100.1C7.3506 100.003 7.20315 99.874 7.01243 99.7106C6.82171 99.5478 6.64444 99.4029 6.48018 99.2768C6.31636 99.1502 6.15084 99.0308 5.98364 98.9173C6.02355 99.1169 6.04372 99.3231 6.04372 99.5361C6.04372 100.308 5.80931 100.917 5.34134 101.362C4.87253 101.808 4.24366 102.03 3.45433 102.03C2.73808 102.03 2.1546 101.797 1.703 101.332C1.25099 100.866 1.02499 100.268 1.02499 99.5361C1.02499 98.7907 1.25099 98.1889 1.703 97.73C2.1546 97.271 2.73808 97.0414 3.45433 97.0414ZM3.45433 98.0395C3.01282 98.0395 2.66457 98.1755 2.41043 98.4483C2.15586 98.721 2.02899 99.0834 2.02899 99.5361C2.02899 99.9884 2.15586 100.351 2.41043 100.624C2.66457 100.897 3.01282 101.032 3.45433 101.032C3.96305 101.032 4.35457 100.907 4.62888 100.654C4.9032 100.401 5.03972 100.028 5.03972 99.5361C5.03972 99.0571 4.89983 98.6879 4.61838 98.4286C4.33734 98.1692 3.94961 98.0395 3.45433 98.0395Z" fill="black"/>
</g>
<defs>
<clipPath id="clip0_64_5">
<rect width="113" height="81" fill="white" transform="translate(81) rotate(90)"/>
</clipPath>
</defs>
</svg>
