<svg width="115" height="29" viewBox="0 0 115 29" fill="none" xmlns="http://www.w3.org/2000/svg">
<path fill-rule="evenodd" clip-rule="evenodd" d="M113.816 11.3814V13.2829L113.808 13.2847V17.4894H114.263V21.3047C114.263 23.47 114.095 24.6608 113.095 25.9896C112.153 27.2434 110.724 27.9331 109.073 27.9331H93.1724V18.1983L92.0553 15.9161V19.7629C92.0553 20.5294 91.9503 21.1685 91.7366 21.6976H92.6016V24.9681C92.6016 26.7422 91.1413 27.9348 89.7773 27.9348H79.5219C77.2054 27.9348 75.5892 27.4424 74.4266 26.3371C73.7997 26.9221 73.1764 27.4983 73.1309 27.5402L71.5445 29.0052L68.8813 22.3926L71.1173 20.7652V16.2269H69.3978C68.8077 19.0505 67.4122 21.881 64.2377 24.2732C60.9039 26.7859 56.8889 26.9972 53.3887 26.9972H51.9004V19.5184H53.3887C56.7593 19.5184 58.4998 19.4137 61.1858 17.0459C62.5848 15.8148 62.5988 13.386 62.541 11.4739H55.9837V14.3498H51.8216V20.5137H50.3333C49.9936 20.5137 46.9452 20.4893 44.5481 19.693C44.4868 19.6721 44.4255 19.6511 44.366 19.6302V26.6305H36.8071V10.4297C36.0507 11.2958 35.1734 12.1811 33.6536 13.276V26.6305H26.0947V16.8171C23.7203 17.4143 21.6244 17.6308 20.8785 17.6308H19.5005C18.8141 19.5603 17.662 21.42 16.1649 22.9129C13.7941 25.2772 8.69705 26.9937 4.04298 26.9937H2.55466V19.5656L3.92917 19.4591C6.63091 19.2513 9.6916 19.0155 11.2307 17.1052C12.2865 15.7939 12.5072 13.2602 12.5439 11.4111H9.82993V16.0104H2.74201V11.4111H0V4.25187H2.74201V1.33056H9.82643V4.25187H12.5124V1.33056H20.2114V4.25361H22.4141V9.40125C24.5958 9.02932 26.4273 8.38674 28.3079 7.35477C30.4738 6.16564 32.8902 4.1017 35.2977 1.38644L36.4201 0.120484H44.3677V10.5991C44.3677 10.637 44.3704 10.6643 44.3722 10.6834L44.373 10.6917C44.8265 11.5316 45.266 11.9925 45.8806 12.2789C46.8436 12.7259 47.9082 12.9128 48.8537 12.9896V4.29552H55.9994V0H63.8017V4.29552H66.4772C67.2196 4.29552 67.8955 4.53649 68.4435 4.94334C68.4313 4.81063 68.4243 4.67618 68.4243 4.53998C68.4243 2.23681 70.3031 0.363198 72.6126 0.363198C73.5704 0.363198 74.4529 0.684489 75.1585 1.22579V0.694966H89.2083C90.0365 0.694966 90.462 0.920219 90.9347 1.21357L90.9825 1.24307C91.0728 1.29889 91.1677 1.35761 91.2866 1.42136C92.0571 1.84044 92.6069 2.68383 92.7242 3.62325C92.824 4.42474 92.5841 5.15637 92.0693 5.63132C91.987 5.70641 91.8119 5.85658 91.5773 6.0504H92.0641V9.85001C92.5036 9.01186 92.9378 8.10561 93.1619 7.41239C93.8676 5.2332 94.4752 1.94521 94.4804 1.91203L94.7045 0.694966H98.0664H108.385C110.882 0.694966 112.076 1.69202 112.913 2.66637C113.657 3.53245 114.028 4.49458 114.163 4.90143H115V11.3814H113.816ZM73.8575 9.43967C74.332 9.43967 74.7715 9.5846 75.1602 9.82731V7.85591C74.4546 8.39547 73.5721 8.71851 72.6143 8.71851C71.534 8.71851 70.55 8.30816 69.8058 7.63764C69.8058 7.64429 69.806 7.65085 69.8062 7.65735L69.8075 7.68094L69.8075 7.6813C69.8084 7.6957 69.8093 7.71011 69.8093 7.72495V9.43967H73.8575ZM18.7266 5.73784H20.9293V9.9251H18.7266V13.7561C18.7266 16.2112 17.5499 19.4329 15.1161 21.8618C13.1515 23.8209 8.56223 25.5077 4.04648 25.5077V20.9398C7.08441 20.7058 10.4813 20.409 12.3933 18.0359C13.9762 16.0698 14.0673 12.5496 14.034 9.92684H8.34161V14.5262H4.23209V9.92684H1.49007V5.73784H4.23209V2.81653H8.34161V5.73784H14.006V2.81653H18.7266V5.73784ZM29.0293 8.65565C26.1262 10.2499 23.5225 10.8348 20.8838 11.1055V16.1449C21.796 16.1449 24.7884 15.7712 27.5882 14.8388V25.1445H32.1688V12.5007C34.4087 10.9813 35.2742 9.9532 36.29 8.74655L36.4166 8.59628V2.36952C34.9686 4.00391 32.1688 6.93046 29.0293 8.65565ZM42.8812 1.60645V10.5991V10.6026C42.8812 11.0182 42.981 11.2434 43.0318 11.3395C43.5763 12.3662 44.2242 13.1485 45.252 13.6269C46.9592 14.4197 48.88 14.5332 50.3368 14.5262V19.026C49.3125 19.026 46.8664 18.8951 45.0226 18.2822C44.0403 17.9556 43.3749 17.5907 42.8812 17.1402V25.1445H38.3006V1.60645H42.8812ZM62.3117 1.48422H57.4895V5.77974H50.3438V12.8604H54.4988V9.98446H63.9961C63.9961 10.3 64.0077 10.6529 64.0201 11.0321L64.0201 11.0326C64.093 13.2536 64.1955 16.3755 62.1751 18.1547C59.0496 20.9084 56.8346 20.9992 53.3922 20.9992V25.5077C56.9274 25.5077 60.4696 25.251 63.3447 23.0841C67.9568 19.6075 68.3192 15.0692 68.3192 11.6817V7.72495C68.3192 6.66504 67.5453 5.78149 66.4754 5.78149H62.3117V1.48422ZM73.6465 2.05198C75.0241 2.62105 75.6783 4.19611 75.1077 5.56998C74.537 6.94384 72.9576 7.59625 71.58 7.02718C70.2023 6.4581 69.5481 4.88304 70.1187 3.50918C70.6894 2.13532 72.2688 1.48291 73.6465 2.05198ZM77.2561 23.1783C76.4822 23.1783 75.3143 22.2407 75.3143 20.6971V12.8918C75.3143 11.9244 74.5562 10.9256 73.8575 10.9256H70.7023V14.7375H72.6143V21.5143L70.7023 22.9059L72.1276 26.4454C72.1276 26.4454 74.1604 24.57 74.6157 24.116C75.4649 25.6893 76.7396 26.4454 79.5307 26.4454H89.7861C90.3481 26.4454 91.1203 25.8779 91.1203 24.9629V23.1783H77.2561ZM90.1484 2.47472L90.1485 2.47478L90.1487 2.47488C90.2625 2.5457 90.3969 2.62932 90.574 2.72573C91.2411 3.08893 91.4547 4.17853 91.059 4.54173C90.6633 4.90493 87.3872 7.53637 87.3872 7.53637H90.5723V19.7611C90.5723 21.6365 89.8141 21.9089 89.3291 21.9089H86.538C86.2649 21.9089 85.8709 21.7587 85.8709 21.3344V19.5184H87.3277V18.1564H84.7801V22.0591H81.9277V18.1564H79.683V22.0591H76.6486V7.23428H79.683L78.5606 6.4782L79.683 5.66101H76.6486V2.18094H89.2083C89.6763 2.18094 89.8337 2.27887 90.1484 2.47472ZM79.683 15.4936H81.9277V14.0408H79.683V15.4936ZM79.683 11.6817H81.9277V10.0176H79.683V11.6817ZM83.3224 6.99091L81.3201 5.47941H85.3246L83.3224 6.99091ZM84.7801 15.4936H87.3277V14.0408H84.7801V15.4936ZM84.7801 11.6817H87.3277V10.0176H84.7801V11.6817ZM95.9442 2.18094C95.9442 2.18094 95.3226 5.57021 94.5785 7.86814C93.9604 9.77842 92.1516 12.7085 92.1516 12.7085L94.0479 16.5814C94.0479 16.5814 94.2931 16.1274 94.6695 15.3835V26.4454H97.886V7.52589C98.5409 5.21923 98.9787 2.96146 98.9787 2.18094H95.9442ZM108.383 2.18094C110.204 2.18094 111.053 2.78685 111.782 3.63373C112.51 4.48061 112.783 5.47941 112.783 5.47941H99.5547V2.18094H108.383ZM113.51 6.38566H98.7353V9.89541H113.51V6.38566ZM99.222 10.7423H112.328V13.7369H99.222V10.7423ZM112.328 14.7672H99.222V17.7024H112.328V14.7672ZM98.737 26.4454H98.7353L98.737 26.4471V26.4454ZM98.737 26.4454H109.082C110.143 26.4454 111.185 26.063 111.913 25.0956C112.641 24.1283 112.783 23.3145 112.783 21.303V18.9736H98.737V26.4454ZM102.013 21.7552V23.3879H108.444C109.141 23.3879 109.509 23.1155 109.639 22.7418C109.72 22.5064 109.718 22.0198 109.717 21.8061C109.717 21.7868 109.717 21.7697 109.717 21.7552H102.013Z" fill="white"/>
</svg>
