{
    "asset" : {
        "generator" : "Khronos glTF Blender I/O v3.2.43",
        "version" : "2.0"
    },
    "scene" : 0,
    "scenes" : [
        {
            "name" : "Scene",
            "nodes" : [
                0,
                1,
                2,
                3,
                4,
                5
            ]
        }
    ],
    "nodes" : [
        {
            "mesh" : 0,
            "name" : "Cube"
        },
        {
            "mesh" : 1,
            "name" : "Plane",
            "translation" : [
                0.20795069634914398,
                0.4242405891418457,
                1.0827348232269287
            ]
        },
        {
            "mesh" : 2,
            "name" : "Plane.001",
            "rotation" : [
                0.7071068286895752,
                0,
                0,
                0.7071068286895752
            ],
            "scale" : [
                0.07975509017705917,
                0.07975509017705917,
                0.07975509017705917
            ],
            "translation" : [
                0.22710567712783813,
                0.2678978145122528,
                0.9812250733375549
            ]
        },
        {
            "mesh" : 3,
            "name" : "Circle",
            "rotation" : [
                0.21083101630210876,
                0.6869486570358276,
                0.6614224314689636,
                0.21487723290920258
            ],
            "scale" : [
                0.033413682132959366,
                0.033413685858249664,
                0.033413682132959366
            ],
            "translation" : [
                0.19762247800827026,
                0.2714354395866394,
                0.934722900390625
            ]
        },
        {
            "mesh" : 4,
            "name" : "Cylinder",
            "rotation" : [
                0.6012902855873108,
                0,
                0,
                0.7990306615829468
            ],
            "scale" : [
                0.15957286953926086,
                0.15957283973693848,
                0.15957283973693848
            ],
            "translation" : [
                0.5579426288604736,
                0.15721088647842407,
                0.2768634855747223
            ]
        },
        {
            "mesh" : 5,
            "name" : "Cube.001"
        }
    ],
    "materials" : [
        {
            "doubleSided" : true,
            "name" : "Material.002",
            "pbrMetallicRoughness" : {
                "baseColorFactor" : [
                    0.8000000715255737,
                    0.27617698907852173,
                    0.13965700566768646,
                    1
                ],
                "metallicFactor" : 0,
                "roughnessFactor" : 0.5
            }
        },
        {
            "doubleSided" : true,
            "name" : "Material.004",
            "pbrMetallicRoughness" : {
                "baseColorFactor" : [
                    0.8000000715255737,
                    0.06588460505008698,
                    0.042117889970541,
                    1
                ],
                "metallicFactor" : 0,
                "roughnessFactor" : 0.5
            }
        },
        {
            "doubleSided" : true,
            "name" : "Material.001",
            "pbrMetallicRoughness" : {
                "baseColorFactor" : [
                    0,
                    0,
                    0,
                    1
                ],
                "metallicFactor" : 0,
                "roughnessFactor" : 0.31889763474464417
            }
        },
        {
            "doubleSided" : true,
            "name" : "Material.005",
            "pbrMetallicRoughness" : {
                "baseColorFactor" : [
                    0.800000011920929,
                    0.800000011920929,
                    0.800000011920929,
                    1
                ],
                "metallicFactor" : 0,
                "roughnessFactor" : 0.5
            }
        },
        {
            "doubleSided" : true,
            "name" : "Material.003",
            "pbrMetallicRoughness" : {
                "baseColorFactor" : [
                    0.44797879457473755,
                    0.44797879457473755,
                    0.44797879457473755,
                    1
                ],
                "metallicFactor" : 0,
                "roughnessFactor" : 0.5
            }
        },
        {
            "doubleSided" : true,
            "name" : "Material.006",
            "pbrMetallicRoughness" : {
                "baseColorFactor" : [
                    0.800000011920929,
                    0.800000011920929,
                    0.800000011920929,
                    1
                ],
                "metallicFactor" : 0,
                "roughnessFactor" : 0.5
            }
        }
    ],
    "meshes" : [
        {
            "name" : "Cube",
            "primitives" : [
                {
                    "attributes" : {
                        "POSITION" : 0,
                        "NORMAL" : 1,
                        "TEXCOORD_0" : 2
                    },
                    "indices" : 3,
                    "material" : 0
                },
                {
                    "attributes" : {
                        "POSITION" : 4,
                        "NORMAL" : 5,
                        "TEXCOORD_0" : 6
                    },
                    "indices" : 7,
                    "material" : 1
                },
                {
                    "attributes" : {
                        "POSITION" : 8,
                        "NORMAL" : 9,
                        "TEXCOORD_0" : 10
                    },
                    "indices" : 11,
                    "material" : 2
                },
                {
                    "attributes" : {
                        "POSITION" : 12,
                        "NORMAL" : 13,
                        "TEXCOORD_0" : 14
                    },
                    "indices" : 15,
                    "material" : 3
                }
            ]
        },
        {
            "name" : "Plane",
            "primitives" : [
                {
                    "attributes" : {
                        "POSITION" : 16,
                        "NORMAL" : 17,
                        "TEXCOORD_0" : 18
                    },
                    "indices" : 19,
                    "material" : 2
                }
            ]
        },
        {
            "name" : "Plane.001",
            "primitives" : [
                {
                    "attributes" : {
                        "POSITION" : 20,
                        "NORMAL" : 21,
                        "TEXCOORD_0" : 22
                    },
                    "indices" : 23,
                    "material" : 4
                }
            ]
        },
        {
            "name" : "Circle",
            "primitives" : [
                {
                    "attributes" : {
                        "POSITION" : 24,
                        "NORMAL" : 25,
                        "TEXCOORD_0" : 26
                    },
                    "indices" : 27,
                    "material" : 2
                },
                {
                    "attributes" : {
                        "POSITION" : 28,
                        "NORMAL" : 29,
                        "TEXCOORD_0" : 30
                    },
                    "indices" : 31,
                    "material" : 5
                }
            ]
        },
        {
            "name" : "Cylinder.001",
            "primitives" : [
                {
                    "attributes" : {
                        "POSITION" : 32,
                        "NORMAL" : 33,
                        "TEXCOORD_0" : 34
                    },
                    "indices" : 35,
                    "material" : 0
                }
            ]
        },
        {
            "name" : "Cube.002",
            "primitives" : [
                {
                    "attributes" : {
                        "POSITION" : 36,
                        "NORMAL" : 37,
                        "TEXCOORD_0" : 38
                    },
                    "indices" : 39,
                    "material" : 2
                }
            ]
        }
    ],
    "accessors" : [
        {
            "bufferView" : 0,
            "componentType" : 5126,
            "count" : 459,
            "max" : [
                0.4939398765563965,
                0.9252854585647583,
                1.1151317358016968
            ],
            "min" : [
                -0.0016590531449764967,
                -0.6472805738449097,
                -0.3003176748752594
            ],
            "type" : "VEC3"
        },
        {
            "bufferView" : 1,
            "componentType" : 5126,
            "count" : 459,
            "type" : "VEC3"
        },
        {
            "bufferView" : 2,
            "componentType" : 5126,
            "count" : 459,
            "type" : "VEC2"
        },
        {
            "bufferView" : 3,
            "componentType" : 5123,
            "count" : 681,
            "type" : "SCALAR"
        },
        {
            "bufferView" : 4,
            "componentType" : 5126,
            "count" : 75,
            "max" : [
                0.18933095037937164,
                -0.11673356592655182,
                1.0542171001434326
            ],
            "min" : [
                0,
                -0.31792402267456055,
                0.9561324715614319
            ],
            "type" : "VEC3"
        },
        {
            "bufferView" : 5,
            "componentType" : 5126,
            "count" : 75,
            "type" : "VEC3"
        },
        {
            "bufferView" : 6,
            "componentType" : 5126,
            "count" : 75,
            "type" : "VEC2"
        },
        {
            "bufferView" : 7,
            "componentType" : 5123,
            "count" : 105,
            "type" : "SCALAR"
        },
        {
            "bufferView" : 8,
            "componentType" : 5126,
            "count" : 5,
            "max" : [
                0.11459983140230179,
                -0.027584083378314972,
                1.105751872062683
            ],
            "min" : [
                0.04391166567802429,
                -0.05658017471432686,
                0.998482346534729
            ],
            "type" : "VEC3"
        },
        {
            "bufferView" : 9,
            "componentType" : 5126,
            "count" : 5,
            "type" : "VEC3"
        },
        {
            "bufferView" : 10,
            "componentType" : 5126,
            "count" : 5,
            "type" : "VEC2"
        },
        {
            "bufferView" : 11,
            "componentType" : 5123,
            "count" : 9,
            "type" : "SCALAR"
        },
        {
            "bufferView" : 12,
            "componentType" : 5126,
            "count" : 28,
            "max" : [
                0.3109307885169983,
                0.3051419258117676,
                0.9339972734451294
            ],
            "min" : [
                0.11387002468109131,
                0.23197636008262634,
                0.8896417021751404
            ],
            "type" : "VEC3"
        },
        {
            "bufferView" : 13,
            "componentType" : 5126,
            "count" : 28,
            "type" : "VEC3"
        },
        {
            "bufferView" : 14,
            "componentType" : 5126,
            "count" : 28,
            "type" : "VEC2"
        },
        {
            "bufferView" : 15,
            "componentType" : 5123,
            "count" : 36,
            "type" : "SCALAR"
        },
        {
            "bufferView" : 16,
            "componentType" : 5126,
            "count" : 16,
            "max" : [
                0.15727747976779938,
                0.042206257581710815,
                -0.08619530498981476
            ],
            "min" : [
                -0.14072830975055695,
                -0.044894665479660034,
                -0.12743401527404785
            ],
            "type" : "VEC3"
        },
        {
            "bufferView" : 17,
            "componentType" : 5126,
            "count" : 16,
            "type" : "VEC3"
        },
        {
            "bufferView" : 18,
            "componentType" : 5126,
            "count" : 16,
            "type" : "VEC2"
        },
        {
            "bufferView" : 19,
            "componentType" : 5123,
            "count" : 24,
            "type" : "SCALAR"
        },
        {
            "bufferView" : 20,
            "componentType" : 5126,
            "count" : 62,
            "max" : [
                2.9897031784057617,
                0.11625862121582031,
                1.098498821258545
            ],
            "min" : [
                -2.847538471221924,
                -4.778609752655029,
                -1.0653916597366333
            ],
            "type" : "VEC3"
        },
        {
            "bufferView" : 21,
            "componentType" : 5126,
            "count" : 62,
            "type" : "VEC3"
        },
        {
            "bufferView" : 22,
            "componentType" : 5126,
            "count" : 62,
            "type" : "VEC2"
        },
        {
            "bufferView" : 23,
            "componentType" : 5123,
            "count" : 96,
            "type" : "SCALAR"
        },
        {
            "bufferView" : 24,
            "componentType" : 5126,
            "count" : 24,
            "max" : [
                0.866025447845459,
                0.03340800479054451,
                1
            ],
            "min" : [
                -0.8660253882408142,
                -0.26984313130378723,
                -0.9890212416648865
            ],
            "type" : "VEC3"
        },
        {
            "bufferView" : 25,
            "componentType" : 5126,
            "count" : 24,
            "type" : "VEC3"
        },
        {
            "bufferView" : 26,
            "componentType" : 5126,
            "count" : 24,
            "type" : "VEC2"
        },
        {
            "bufferView" : 27,
            "componentType" : 5123,
            "count" : 36,
            "type" : "SCALAR"
        },
        {
            "bufferView" : 28,
            "componentType" : 5126,
            "count" : 8,
            "max" : [
                0.3887719511985779,
                0.03340800479054451,
                0.2745254337787628
            ],
            "min" : [
                -0.1389273703098297,
                -0.0387570783495903,
                -0.3366985321044922
            ],
            "type" : "VEC3"
        },
        {
            "bufferView" : 29,
            "componentType" : 5126,
            "count" : 8,
            "type" : "VEC3"
        },
        {
            "bufferView" : 30,
            "componentType" : 5126,
            "count" : 8,
            "type" : "VEC2"
        },
        {
            "bufferView" : 31,
            "componentType" : 5123,
            "count" : 12,
            "type" : "SCALAR"
        },
        {
            "bufferView" : 32,
            "componentType" : 5126,
            "count" : 260,
            "max" : [
                0.7858577370643616,
                0.9719098210334778,
                1.0211690664291382
            ],
            "min" : [
                -0.5914320349693298,
                0.6201707124710083,
                -1.0720241069793701
            ],
            "type" : "VEC3"
        },
        {
            "bufferView" : 33,
            "componentType" : 5126,
            "count" : 260,
            "type" : "VEC3"
        },
        {
            "bufferView" : 34,
            "componentType" : 5126,
            "count" : 260,
            "type" : "VEC2"
        },
        {
            "bufferView" : 35,
            "componentType" : 5123,
            "count" : 420,
            "type" : "SCALAR"
        },
        {
            "bufferView" : 36,
            "componentType" : 5126,
            "count" : 472,
            "max" : [
                0.5710721015930176,
                1.0557661056518555,
                0.8482016324996948
            ],
            "min" : [
                -0.036046016961336136,
                -0.5409294962882996,
                -0.4240037202835083
            ],
            "type" : "VEC3"
        },
        {
            "bufferView" : 37,
            "componentType" : 5126,
            "count" : 472,
            "type" : "VEC3"
        },
        {
            "bufferView" : 38,
            "componentType" : 5126,
            "count" : 472,
            "type" : "VEC2"
        },
        {
            "bufferView" : 39,
            "componentType" : 5123,
            "count" : 726,
            "type" : "SCALAR"
        }
    ],
    "bufferViews" : [
        {
            "buffer" : 0,
            "byteLength" : 5508,
            "byteOffset" : 0
        },
        {
            "buffer" : 0,
            "byteLength" : 5508,
            "byteOffset" : 5508
        },
        {
            "buffer" : 0,
            "byteLength" : 3672,
            "byteOffset" : 11016
        },
        {
            "buffer" : 0,
            "byteLength" : 1362,
            "byteOffset" : 14688
        },
        {
            "buffer" : 0,
            "byteLength" : 900,
            "byteOffset" : 16052
        },
        {
            "buffer" : 0,
            "byteLength" : 900,
            "byteOffset" : 16952
        },
        {
            "buffer" : 0,
            "byteLength" : 600,
            "byteOffset" : 17852
        },
        {
            "buffer" : 0,
            "byteLength" : 210,
            "byteOffset" : 18452
        },
        {
            "buffer" : 0,
            "byteLength" : 60,
            "byteOffset" : 18664
        },
        {
            "buffer" : 0,
            "byteLength" : 60,
            "byteOffset" : 18724
        },
        {
            "buffer" : 0,
            "byteLength" : 40,
            "byteOffset" : 18784
        },
        {
            "buffer" : 0,
            "byteLength" : 18,
            "byteOffset" : 18824
        },
        {
            "buffer" : 0,
            "byteLength" : 336,
            "byteOffset" : 18844
        },
        {
            "buffer" : 0,
            "byteLength" : 336,
            "byteOffset" : 19180
        },
        {
            "buffer" : 0,
            "byteLength" : 224,
            "byteOffset" : 19516
        },
        {
            "buffer" : 0,
            "byteLength" : 72,
            "byteOffset" : 19740
        },
        {
            "buffer" : 0,
            "byteLength" : 192,
            "byteOffset" : 19812
        },
        {
            "buffer" : 0,
            "byteLength" : 192,
            "byteOffset" : 20004
        },
        {
            "buffer" : 0,
            "byteLength" : 128,
            "byteOffset" : 20196
        },
        {
            "buffer" : 0,
            "byteLength" : 48,
            "byteOffset" : 20324
        },
        {
            "buffer" : 0,
            "byteLength" : 744,
            "byteOffset" : 20372
        },
        {
            "buffer" : 0,
            "byteLength" : 744,
            "byteOffset" : 21116
        },
        {
            "buffer" : 0,
            "byteLength" : 496,
            "byteOffset" : 21860
        },
        {
            "buffer" : 0,
            "byteLength" : 192,
            "byteOffset" : 22356
        },
        {
            "buffer" : 0,
            "byteLength" : 288,
            "byteOffset" : 22548
        },
        {
            "buffer" : 0,
            "byteLength" : 288,
            "byteOffset" : 22836
        },
        {
            "buffer" : 0,
            "byteLength" : 192,
            "byteOffset" : 23124
        },
        {
            "buffer" : 0,
            "byteLength" : 72,
            "byteOffset" : 23316
        },
        {
            "buffer" : 0,
            "byteLength" : 96,
            "byteOffset" : 23388
        },
        {
            "buffer" : 0,
            "byteLength" : 96,
            "byteOffset" : 23484
        },
        {
            "buffer" : 0,
            "byteLength" : 64,
            "byteOffset" : 23580
        },
        {
            "buffer" : 0,
            "byteLength" : 24,
            "byteOffset" : 23644
        },
        {
            "buffer" : 0,
            "byteLength" : 3120,
            "byteOffset" : 23668
        },
        {
            "buffer" : 0,
            "byteLength" : 3120,
            "byteOffset" : 26788
        },
        {
            "buffer" : 0,
            "byteLength" : 2080,
            "byteOffset" : 29908
        },
        {
            "buffer" : 0,
            "byteLength" : 840,
            "byteOffset" : 31988
        },
        {
            "buffer" : 0,
            "byteLength" : 5664,
            "byteOffset" : 32828
        },
        {
            "buffer" : 0,
            "byteLength" : 5664,
            "byteOffset" : 38492
        },
        {
            "buffer" : 0,
            "byteLength" : 3776,
            "byteOffset" : 44156
        },
        {
            "buffer" : 0,
            "byteLength" : 1452,
            "byteOffset" : 47932
        }
    ],
    "buffers" : [
        {
            "byteLength" : 49384,
            "uri" : "data:application/octet-stream;base64,"
        }
    ]
}
